<svg xmlns="http://www.w3.org/2000/svg" viewBox="80.3 239.16 835.48 521.68">
  <defs>
    <style>
      .cls-1 {
        stroke-width: 7px;
      }

      .cls-1, .cls-2, .cls-3 {
        stroke: #000;
        stroke-miterlimit: 10;
      }

      .cls-1, .cls-4 {
        fill: #dba2a2;
      }

      .cls-5, .cls-6, .cls-4, .cls-7, .cls-8 {
        stroke-width: 0px;
      }

      .cls-5, .cls-2 {
        fill: #000;
      }

      .cls-6 {
        fill: #fbcccb;
      }

      .cls-2, .cls-3 {
        stroke-width: 10px;
      }

      .cls-7 {
        fill: #ee7e7f;
      }

      .cls-8 {
        fill: #fff;
      }

      .cls-3 {
        fill: none;
      }
    </style>
  </defs>
  <g id="Layer_4" data-name="Layer 4">
    <path class="cls-6" d="M852.15,258.06c-19.98,21.1-31.3,61.58-46.58,116.2l-1.47,5.27c-14.56,51.97-58.78,90.39-78.35,105.31-5.64-29.53-14.79-57.76-20.48-87.2-5.01-36.22,14.51-71.66,39.39-96.99-29.6,23.27-52.74,59.07-50.6,98.05,3.83,36.72,14.16,73.4,16.23,109.86,6.33,69.32-18.8,144.49-77.87,184.65-38.29,26.36-85.85,38.18-132,38.64-46.15-.46-93.72-12.28-132-38.64-59.07-40.17-84.2-115.33-77.87-184.65,2.07-36.47,12.4-73.14,16.23-109.86,2.14-38.98-21-74.78-50.6-98.05,24.88,25.33,44.4,60.77,39.39,96.99-5.88,30.47-15.47,59.66-21.05,90.32-16.51-12-66.82-52.31-82.53-108.43l-1.47-5.27c-15.29-54.62-26.6-95.1-46.58-116.2,56.63-5.18,167.52-5.27,260.48,82.92,3.4,3.23,8.77,3.09,12-.32,3.23-3.4,3.09-8.77-.32-12.01-10.81-10.25-22.12-19.64-33.9-28.16,19.48-7.27,66.41-22.49,118.22-22.49s94.03,13.73,115.08,21.34c-12.36,8.83-24.2,18.6-35.51,29.31-3.4,3.24-3.54,8.61-.32,12.01,3.23,3.4,8.6,3.54,12.01.32,92.94-88.18,203.83-88.1,260.46-82.92Z"/>
    <path class="cls-4" d="M727.54,491s27.64-31.03,46.57-53.97l-27.77,11.34c-4.57,1.87-9.82-.06-12.07-4.46-9.25-18.06-29.74-64.65-18.14-103.88-9.48,15.67-13.75,32.76-14.23,40.83-.47,8.07,12.34,87.35,16.14,95.89,3.8,8.54,7.7,8.08,7.7,8.08l1.79,6.16Z"/>
    <path class="cls-4" d="M276.29,500s-27.64-31.03-46.57-53.97l27.77,11.34c4.57,1.87,9.82-.06,12.07-4.46,9.25-18.06,29.74-64.65,18.14-103.88,9.48,15.67,13.75,32.76,14.23,40.83.47,8.07-12.34,87.35-16.14,95.89-3.8,8.54-7.7,8.08-7.7,8.08l-1.79,6.16Z"/>
    <path class="cls-4" d="M287.48,562.2s70.46,114.56,210.56,114.56,214.15-114.56,214.15-114.56c0,0-10.23,190.52-211.77,182.92-201.54-7.6-212.93-182.92-212.93-182.92Z"/>
  </g>
  <g id="Layer_1" data-name="Layer 1">
    <path class="cls-5" d="M877,243.74c-22.39-2.8-69-8.63-123.12-.19-44.15,6.87-84.65,21.7-121.06,44.26-11.86-4.96-67.68-26.79-132.4-26.79-71.48,0-132.09,26.62-134.64,27.74-.19.08-.38.18-.55.28-36.93-23.24-78.09-38.49-123.04-45.49-54.12-8.43-100.73-2.61-123.12.19l-38.77,4.84,36.84,11.73c26.19,8.32,39.11,54.54,57.01,118.52l1.48,5.27c20.57,73.48,92.01,119.91,95.03,121.85.34.22.69.4,1.04.57,0,.05-.01.1-.01.15-7.19,51.34.85,105.45,27.66,150.36,26.37,46.31,73.29,78.28,123.96,92.66,25.04,7.1,51.03,11.32,77.11,11.15,26.08.17,52.07-4.05,77.11-11.15,50.67-14.38,97.59-46.35,123.96-92.66,26.81-44.91,34.85-99.02,27.66-150.36-.11-.99-.25-1.98-.38-2.96,14.84-10.29,73.37-54.24,91.68-119.6l1.48-5.27c17.89-63.98,30.83-110.2,57.01-118.52l36.84-11.73-38.77-4.84ZM805.56,374.25l-1.47,5.27c-14.56,51.97-58.78,90.39-78.35,105.31-5.64-29.53-14.79-57.76-20.48-87.2-5.01-36.22,14.51-71.66,39.39-96.99-29.6,23.27-52.74,59.07-50.6,98.05,3.83,36.72,14.16,73.4,16.23,109.86,6.33,69.32-18.8,144.49-77.87,184.65-38.29,26.36-85.85,38.18-132,38.64-46.15-.46-93.72-12.28-132-38.64-59.07-40.17-84.2-115.33-77.87-184.65,2.07-36.47,12.4-73.14,16.23-109.86,2.14-38.98-21-74.78-50.6-98.05,24.88,25.33,44.4,60.77,39.39,96.99-5.88,30.47-15.47,59.66-21.05,90.32-16.51-12-66.82-52.31-82.53-108.43l-1.47-5.27c-15.29-54.62-26.6-95.1-46.58-116.2,56.63-5.18,167.52-5.27,260.48,82.92,3.4,3.23,8.77,3.09,12-.32,3.23-3.4,3.09-8.77-.32-12.01-10.81-10.25-22.12-19.64-33.9-28.16,19.48-7.27,66.41-22.49,118.22-22.49s94.03,13.73,115.08,21.34c-12.36,8.83-24.2,18.6-35.51,29.31-3.4,3.24-3.54,8.61-.32,12.01,3.23,3.4,8.6,3.54,12.01.32,92.94-88.18,203.83-88.1,260.46-82.92-19.98,21.1-31.3,61.58-46.58,116.2Z"/>
  </g>
  <g id="Layer_3" data-name="Layer 3">
    <ellipse class="cls-3" cx="504.28" cy="599.5" rx="118.01" ry="82.6"/>
    <rect class="cls-1" x="441.26" y="562.23" width="30.52" height="74.54" rx="12" ry="12"/>
    <rect class="cls-1" x="535.54" y="562.23" width="30.52" height="74.54" rx="12" ry="12"/>
    <circle class="cls-7" cx="341.5" cy="537.91" r="33.79"/>
    <circle class="cls-2" cx="359.09" cy="477.31" r="39.59"/>
    <circle class="cls-7" cx="663.66" cy="537.91" r="33.79"/>
    <circle class="cls-2" cx="641.47" cy="477.31" r="39.59"/>
    <circle class="cls-8" cx="369.29" cy="487.14" r="16.98"/>
    <circle class="cls-8" cx="629.87" cy="487.14" r="16.98"/>
  </g>
</svg>